<?xml version="1.0" standalone="no"?>
<!DOCTYPE svg PUBLIC "-//W3C//DTD SVG 20010904//EN"
 "http://www.w3.org/TR/2001/REC-SVG-20010904/DTD/svg10.dtd">
<svg version="1.0" xmlns="http://www.w3.org/2000/svg"
 width="700.000000pt" height="700.000000pt" viewBox="0 0 700.000000 700.000000"
 preserveAspectRatio="xMidYMid meet">
<metadata>
Created by potrace 1.11, written by Peter Selinger 2001-2013
</metadata>
<g transform="translate(0.000000,700.000000) scale(0.100000,-0.100000)"
fill="#000000" stroke="none">
<path d="M5095 5746 c-18 -27 -11 -51 22 -77 16 -13 17 -12 4 4 -11 14 -11 17
1 17 8 0 20 -6 27 -12 11 -11 12 -10 5 2 -11 19 -6 52 10 63 7 5 6 7 -4 6 -32
-3 -51 1 -45 11 13 22 -6 8 -20 -14z"/>
<path d="M5805 5742 c-19 -14 -15 -40 10 -56 14 -9 25 -12 25 -6 0 5 6 10 13
10 18 0 16 43 -3 52 -20 9 -33 9 -45 0z"/>
<path d="M2905 5699 c2 -3 0 -23 -6 -43 -7 -27 -15 -36 -25 -32 -8 3 -26 -1
-39 -10 -31 -20 -15 -41 32 -39 26 0 32 -3 33 -20 1 -59 4 -65 31 -63 19 1 25
6 21 17 -4 10 -1 12 9 6 11 -6 11 -5 3 4 -26 28 1 54 68 65 32 5 2 32 -44 40
-16 2 -23 10 -22 25 0 11 -3 21 -7 21 -3 0 -9 9 -12 19 -3 12 -13 19 -25 18
-11 0 -19 -4 -17 -8z"/>
<path d="M3965 5630 c-11 -4 -23 -6 -27 -3 -5 2 -8 -2 -8 -10 0 -8 -6 -20 -14
-26 -8 -7 -12 -21 -8 -34 8 -29 31 -73 37 -69 12 5 26 1 21 -6 -3 -5 1 -9 9
-9 8 0 12 4 9 9 -3 4 3 8 13 8 33 0 46 18 53 69 3 28 4 49 2 46 -3 -3 -12 1
-21 8 -23 20 -43 25 -66 17z"/>
<path d="M2021 5595 c-20 -25 -19 -34 4 -59 19 -20 25 -23 25 -11 0 12 6 15
23 10 16 -5 18 -4 8 4 -12 7 -12 13 -3 24 10 12 9 16 -3 21 -9 3 -14 10 -10
15 8 13 -34 9 -44 -4z"/>
<path d="M1073 5467 c-10 -13 -25 -26 -33 -30 -13 -5 -12 -6 1 -6 11 -1 15
-10 14 -30 -1 -17 1 -29 4 -29 13 2 41 -15 36 -22 -3 -5 9 -5 26 0 18 5 36 7
41 4 5 -3 8 -2 7 3 -1 4 3 21 9 36 17 40 15 51 -11 75 -31 29 -71 28 -94 -1z"/>
<path d="M4559 5385 c-1 -3 -3 -9 -4 -15 -1 -5 -3 -17 -4 -25 0 -8 -4 -14 -8
-14 -5 1 -16 1 -25 0 -28 -2 -21 -21 7 -21 18 0 25 -5 25 -18 0 -10 3 -22 8
-26 4 -4 7 -13 7 -18 0 -6 7 -13 15 -15 13 -4 13 -3 0 6 -13 9 -8 15 11 13 4
-1 5 7 2 17 -2 9 3 23 11 30 9 8 16 10 16 6 0 -4 7 -1 16 6 15 12 14 14 -7 19
-13 3 -30 18 -37 33 -12 24 -30 36 -33 22z"/>
<path d="M5573 5241 c-3 -11 -10 -18 -15 -15 -6 4 -6 -1 1 -13 13 -26 -3 -43
-41 -43 -15 0 -28 -5 -28 -11 0 -5 -5 -7 -12 -3 -7 4 -8 3 -4 -5 12 -19 66
-43 66 -29 0 7 3 8 9 3 10 -11 22 -56 24 -92 1 -12 5 -19 9 -17 5 3 5 10 2 16
-5 7 0 9 12 6 20 -5 21 -4 25 57 1 13 4 24 8 23 3 0 9 1 14 2 4 1 10 3 15 4
41 10 52 18 41 32 -6 8 -24 14 -39 14 -24 0 -30 6 -42 42 -15 47 -37 61 -45
29z"/>
<path d="M496 5182 c-11 -14 -15 -22 -9 -19 6 4 13 -1 15 -11 6 -20 44 -26 55
-9 12 19 12 36 0 45 -27 20 -43 19 -61 -6z"/>
<path d="M2897 5104 c-21 -14 -35 -29 -32 -34 3 -5 1 -18 -4 -29 -9 -15 -3
-25 29 -55 22 -20 40 -32 40 -26 0 5 7 10 16 10 23 0 61 33 56 49 -3 10 0 11
9 5 12 -7 12 -5 0 9 -7 9 -10 17 -7 17 4 0 1 10 -6 23 -7 12 -11 25 -10 30 1
4 -1 6 -5 6 -25 -4 -53 2 -48 11 8 14 6 12 -38 -16z"/>
<path d="M3819 4898 c-10 -34 -7 -48 10 -48 26 0 44 23 29 38 -10 10 -37 17
-39 10z"/>
<path d="M2018 4851 c3 -9 1 -12 -6 -7 -17 10 -15 2 6 -21 20 -23 73 -27 64
-4 -3 9 -1 12 6 7 9 -6 9 -1 0 19 -9 20 -18 25 -44 23 -23 -1 -30 -6 -26 -17z"/>
<path d="M1188 4818 c4 -27 -7 -35 -40 -29 -5 0 -8 -3 -8 -8 0 -10 20 -26 33
-26 4 0 7 -4 8 -10 0 -5 5 -15 10 -22 7 -7 5 -13 -3 -16 -8 -4 -7 -6 5 -6 36
-2 33 -5 36 40 1 17 6 20 26 17 33 -7 34 19 1 28 -20 5 -39 33 -38 54 0 3 -7
6 -17 6 -13 0 -16 -7 -13 -28z"/>
<path d="M6074 4822 c-19 -3 -32 -22 -38 -57 -5 -24 18 -53 49 -62 28 -9 37
-8 54 9 12 10 21 24 22 31 0 7 2 22 3 34 1 12 -1 20 -5 17 -4 -2 -10 4 -13 13
-6 18 -30 23 -72 15z"/>
<path d="M6439 4721 c-19 -19 -34 -55 -19 -46 6 3 10 -1 10 -9 0 -36 55 1 55
38 1 13 -3 22 -8 19 -5 -3 -12 -1 -16 4 -3 6 -12 4 -22 -6z"/>
<path d="M1692 4637 c-6 -7 -14 -27 -19 -46 -7 -25 -15 -35 -33 -38 -49 -7
-57 -13 -36 -29 11 -8 30 -14 43 -14 21 0 28 -10 24 -34 -3 -16 29 -55 42 -50
7 2 14 19 15 37 3 40 9 46 49 49 18 1 35 8 37 14 5 13 -50 38 -64 29 -9 -6
-20 19 -20 47 0 28 -25 51 -38 35z"/>
<path d="M6192 4599 c-35 -13 -48 -31 -45 -64 3 -39 37 -66 79 -63 18 1 31 4
29 7 -3 2 1 11 7 19 41 49 -11 123 -70 101z"/>
<path d="M4775 4580 c-3 -5 -1 -10 4 -10 6 0 11 5 11 10 0 6 -2 10 -4 10 -3 0
-8 -4 -11 -10z"/>
<path d="M4815 4580 c-3 -5 -1 -10 4 -10 6 0 11 5 11 10 0 6 -2 10 -4 10 -3 0
-8 -4 -11 -10z"/>
<path d="M4859 4588 c-5 -18 -6 -38 -1 -34 7 8 12 36 6 36 -2 0 -4 -1 -5 -2z"/>
<path d="M4754 4556 c1 -8 5 -18 8 -22 4 -3 5 1 4 10 -1 8 -5 18 -8 22 -4 3
-5 -1 -4 -10z"/>
<path d="M3256 4496 c1 -12 3 -26 3 -31 1 -14 51 -18 51 -4 0 5 4 8 8 5 4 -2
8 6 8 19 0 13 -4 21 -8 19 -4 -3 -8 0 -8 6 0 5 -13 9 -28 8 -22 -2 -28 -7 -26
-22z"/>
<path d="M296 4487 c3 -10 9 -15 12 -12 3 3 0 11 -7 18 -10 9 -11 8 -5 -6z"/>
<path d="M1575 4395 c-110 -28 -186 -62 -291 -131 -50 -33 -304 -234 -354
-281 -14 -13 -31 -21 -38 -18 -7 3 -11 1 -8 -4 3 -5 -1 -15 -10 -22 -13 -10
-20 -10 -42 3 -28 17 -59 11 -79 -13 -15 -20 -22 -68 -10 -72 17 -5 -96 -66
-170 -91 -120 -40 -235 -29 -328 31 -60 39 -156 135 -150 151 2 7 1 10 -4 7
-5 -3 -16 4 -24 16 -19 26 -23 18 -37 -62 -32 -195 -35 -625 -5 -866 2 -16 6
-57 10 -93 4 -35 11 -75 16 -88 16 -41 97 -135 148 -171 11 -8 17 -19 14 -25
-3 -6 -3 -8 1 -4 4 3 35 -7 69 -23 34 -15 82 -30 107 -33 25 -2 50 -5 55 -7
17 -5 128 22 170 41 23 10 47 20 55 22 8 2 17 6 20 9 9 11 142 99 150 99 5 0
10 3 12 8 2 4 37 34 78 67 41 34 111 90 155 126 103 83 202 159 209 159 3 0
25 13 49 30 41 27 123 67 157 76 77 19 104 23 158 19 83 -6 171 -49 248 -123
64 -61 144 -161 144 -180 0 -7 4 -12 10 -12 5 0 9 -119 9 -306 -1 -304 -1
-305 -23 -313 -33 -13 -159 -205 -173 -264 -25 -108 -23 -178 8 -282 11 -39
22 -77 23 -85 5 -23 33 -90 57 -135 12 -22 26 -49 32 -61 6 -11 25 -31 43 -45
l33 -24 0 -505 c0 -278 0 -530 1 -561 l0 -56 56 -22 c31 -11 57 -21 59 -21 2
0 4 240 4 533 0 666 0 617 9 615 17 -4 82 15 82 24 0 6 9 8 20 5 11 -3 18 -2
15 2 -2 5 8 14 23 22 15 7 44 26 65 42 20 16 37 26 37 23 0 -3 8 2 19 12 10 9
67 55 127 102 60 46 136 114 169 151 33 37 61 66 62 65 3 -3 3 -1432 -1 -1481
-3 -43 -17 -260 -18 -275 -1 -23 9 -30 55 -39 63 -13 96 -18 156 -27 25 -3 57
-7 70 -10 42 -6 213 -17 280 -18 74 -1 68 -14 75 149 6 125 16 348 21 445 4
86 25 93 26 8 0 -34 2 -110 5 -168 6 -154 12 -327 13 -388 l1 -54 143 6 c153
7 173 9 347 33 128 17 153 26 146 51 -3 9 -8 69 -11 132 -3 63 -8 126 -10 140
-10 63 -16 320 -7 320 7 0 16 464 11 595 -4 116 -3 549 2 556 3 5 27 -9 52
-32 26 -22 45 -45 42 -50 -4 -5 0 -7 7 -4 7 3 31 -12 54 -33 128 -117 238
-209 286 -239 26 -17 46 -32 43 -34 -5 -6 27 -9 95 -8 76 0 99 3 94 11 -2 4 9
15 26 24 16 10 30 22 30 26 0 4 4 8 10 8 6 0 11 -214 12 -609 l3 -608 57 25
57 24 3 712 c3 603 5 715 18 736 8 14 15 27 15 30 1 3 9 31 19 63 35 119 26
230 -28 315 l-26 42 0 347 0 348 44 -65 c173 -259 365 -320 605 -192 46 24 89
48 95 53 6 5 58 46 116 91 58 45 108 86 112 92 4 6 8 8 8 5 0 -4 16 8 35 26
50 48 192 161 250 199 124 83 229 123 315 121 85 -3 99 -5 113 -20 8 -8 17
-12 20 -9 5 6 47 -13 57 -25 3 -4 19 -15 35 -26 17 -10 46 -37 66 -59 20 -23
49 -56 66 -75 l30 -35 7 48 c4 26 9 58 12 69 25 129 25 623 0 832 -2 17 -7 57
-11 90 -3 33 -7 68 -9 77 -1 10 -16 37 -33 60 -150 205 -340 265 -533 168 -93
-46 -125 -63 -130 -69 -3 -3 -32 -26 -65 -50 -58 -43 -149 -117 -190 -155 -11
-10 -36 -30 -55 -45 -19 -14 -40 -30 -46 -36 -6 -5 -28 -23 -49 -40 -21 -16
-43 -34 -49 -40 -53 -47 -187 -125 -262 -152 -70 -25 -196 -24 -254 2 -79 34
-156 99 -216 180 -16 22 -31 42 -34 45 -4 3 -16 22 -29 42 -24 41 -25 85 -1
80 8 -2 12 -1 8 3 -3 4 -1 23 6 43 27 77 -20 142 -101 142 -83 0 -129 -87 -86
-161 10 -16 21 -29 25 -29 4 0 8 -410 8 -910 0 -918 -1 -938 -32 -895 -5 6 -8
5 -8 -2 0 -7 -11 -13 -25 -13 -23 0 -69 -17 -90 -33 -37 -28 -62 -56 -74 -82
-10 -21 -15 -26 -19 -15 -3 8 -15 37 -28 64 -13 27 -21 54 -17 60 3 6 3 8 -2
4 -4 -4 -26 21 -49 55 -54 81 -165 191 -250 247 -37 25 -71 45 -74 45 -22 2
-91 43 -85 50 5 4 3 5 -3 2 -6 -3 -39 3 -75 14 -101 32 -123 17 -120 -83 l1
-48 -457 2 -456 3 -3 42 c-4 55 -17 78 -54 97 -17 8 -28 11 -26 7 3 -4 -13 -8
-35 -9 -21 -1 -56 -9 -76 -17 -20 -9 -44 -13 -52 -10 -9 3 -12 3 -8 -1 4 -4
-13 -17 -37 -28 -70 -33 -175 -121 -241 -203 -33 -41 -64 -80 -70 -87 -15 -18
-32 -47 -51 -83 -9 -18 -19 -33 -23 -33 -3 0 -17 -22 -30 -50 -13 -28 -27 -50
-32 -50 -5 0 -24 16 -44 36 l-36 36 -2 629 c-1 346 2 629 6 629 5 0 5 5 1 11
-4 6 -6 147 -5 313 1 233 4 303 14 311 7 6 16 18 20 28 3 9 11 17 16 17 14 0
-7 82 -27 103 -20 22 -62 44 -79 41 -7 -1 -20 -2 -28 -3 -8 0 -29 -14 -46 -29
-27 -24 -32 -35 -32 -76 0 -34 6 -53 22 -69 11 -13 21 -32 21 -43 0 -13 -11
-2 -33 31 -85 132 -189 225 -291 261 -37 14 -145 25 -171 19z"/>
<path d="M3104 4327 c-33 -17 -54 -51 -53 -87 0 -39 11 -58 50 -83 26 -17 31
-40 14 -66 -5 -8 -4 -12 1 -8 6 3 9 -69 9 -178 l0 -183 -45 -45 c-59 -59 -101
-107 -94 -107 3 0 -3 -12 -14 -27 -10 -16 -31 -57 -45 -93 -14 -35 -32 -66
-39 -68 -86 -26 -108 -64 -108 -185 l0 -86 28 1 c77 2 77 2 90 -56 15 -66 34
-106 81 -171 64 -89 158 -158 269 -197 86 -30 98 -32 222 -32 91 -1 130 4 185
21 123 39 238 120 304 216 28 41 66 117 62 125 -1 1 5 15 12 30 8 15 12 32 10
39 -6 17 16 26 58 25 46 -2 55 12 54 81 0 26 4 47 10 47 6 0 6 3 -1 8 -6 4
-14 22 -17 41 -8 38 -48 77 -88 86 -18 4 -31 16 -38 36 -6 16 -16 43 -23 60
-14 38 -77 135 -109 168 -22 24 -23 28 -24 250 0 124 1 233 3 242 2 8 17 23
33 33 34 20 50 68 36 109 -11 34 -62 68 -92 62 -11 -2 -26 -4 -33 -4 -23 -2
-62 -53 -62 -82 0 -42 20 -77 50 -91 23 -10 27 -17 27 -57 1 -25 -4 -52 -10
-60 -7 -9 -8 -12 -1 -8 7 4 10 -44 11 -159 0 -90 -2 -164 -5 -164 -2 0 -21 13
-41 28 -104 81 -276 122 -406 96 -22 -4 -50 -8 -62 -8 -11 -1 -19 -4 -16 -8 2
-5 -1 -8 -6 -8 -6 0 -37 -13 -69 -28 l-58 -28 1 190 c0 105 4 197 8 204 5 6
14 12 21 12 8 0 21 12 31 26 21 33 15 94 -11 122 -22 23 -83 34 -110 19z"/>
<path d="M3665 4071 c-11 -5 -23 -7 -27 -5 -11 7 -3 -25 10 -38 15 -15 35 2
37 32 1 11 1 20 1 19 -1 0 -10 -4 -21 -8z"/>
<path d="M2542 3908 c-13 -13 -16 -47 -4 -49 53 -9 71 5 52 42 -12 22 -30 25
-48 7z"/>
</g>
</svg>
